<svg width="28" height="28" viewBox="0 0 28 28" fill="none" xmlns="http://www.w3.org/2000/svg">
<path d="M3.5 7.29167C3.5 6.28605 3.89948 5.32163 4.61055 4.61055C5.32163 3.89948 6.28605 3.5 7.29167 3.5H20.7083C21.7139 3.5 22.6784 3.89948 23.3894 4.61055C24.1005 5.32163 24.5 6.28605 24.5 7.29167V20.7083C24.5 21.7139 24.1005 22.6784 23.3894 23.3894C22.6784 24.1005 21.7139 24.5 20.7083 24.5H7.29167C6.28605 24.5 5.32163 24.1005 4.61055 23.3894C3.89948 22.6784 3.5 21.7139 3.5 20.7083V7.29167ZM7.29167 5.25C6.75018 5.25 6.23088 5.4651 5.84799 5.84799C5.4651 6.23088 5.25 6.75018 5.25 7.29167V20.7083C5.25 21.8353 6.16467 22.75 7.29167 22.75H20.7083C21.2498 22.75 21.7691 22.5349 22.152 22.152C22.5349 21.7691 22.75 21.2498 22.75 20.7083V7.29167C22.75 6.75018 22.5349 6.23088 22.152 5.84799C21.7691 5.4651 21.2498 5.25 20.7083 5.25H7.29167ZM7 9.625C7 8.498 7.91467 7.58333 9.04167 7.58333H18.9583C20.0853 7.58333 21 8.498 21 9.625V11.375C21 11.9165 20.7849 12.4358 20.402 12.8187C20.0191 13.2016 19.4998 13.4167 18.9583 13.4167H9.04167C8.50018 13.4167 7.98088 13.2016 7.59799 12.8187C7.2151 12.4358 7 11.9165 7 11.375V9.625ZM9.04167 9.33333C8.96431 9.33333 8.89012 9.36406 8.83543 9.41876C8.78073 9.47346 8.75 9.54765 8.75 9.625V11.375C8.75 11.536 8.88067 11.6667 9.04167 11.6667H18.9583C19.0357 11.6667 19.1099 11.6359 19.1646 11.5812C19.2193 11.5265 19.25 11.4524 19.25 11.375V9.625C19.25 9.54765 19.2193 9.47346 19.1646 9.41876C19.1099 9.36406 19.0357 9.33333 18.9583 9.33333H9.04167ZM7.875 15.1667C7.64294 15.1667 7.42038 15.2589 7.25628 15.4229C7.09219 15.587 7 15.8096 7 16.0417C7 16.2737 7.09219 16.4963 7.25628 16.6604C7.42038 16.8245 7.64294 16.9167 7.875 16.9167H13.125C13.3571 16.9167 13.5796 16.8245 13.7437 16.6604C13.9078 16.4963 14 16.2737 14 16.0417C14 15.8096 13.9078 15.587 13.7437 15.4229C13.5796 15.2589 13.3571 15.1667 13.125 15.1667H7.875ZM7 19.5417C7 19.3096 7.09219 19.087 7.25628 18.9229C7.42038 18.7589 7.64294 18.6667 7.875 18.6667H13.125C13.3571 18.6667 13.5796 18.7589 13.7437 18.9229C13.9078 19.087 14 19.3096 14 19.5417C14 19.7737 13.9078 19.9963 13.7437 20.1604C13.5796 20.3245 13.3571 20.4167 13.125 20.4167H7.875C7.64294 20.4167 7.42038 20.3245 7.25628 20.1604C7.09219 19.9963 7 19.7737 7 19.5417ZM17.7917 15.1667C17.2502 15.1667 16.7309 15.3818 16.348 15.7647C15.9651 16.1475 15.75 16.6668 15.75 17.2083V18.375C15.75 19.502 16.6647 20.4167 17.7917 20.4167H18.9583C19.4998 20.4167 20.0191 20.2016 20.402 19.8187C20.7849 19.4358 21 18.9165 21 18.375V17.2083C21 16.6668 20.7849 16.1475 20.402 15.7647C20.0191 15.3818 19.4998 15.1667 18.9583 15.1667H17.7917ZM17.5 17.2083C17.5 17.131 17.5307 17.0568 17.5854 17.0021C17.6401 16.9474 17.7143 16.9167 17.7917 16.9167H18.9583C19.0357 16.9167 19.1099 16.9474 19.1646 17.0021C19.2193 17.0568 19.25 17.131 19.25 17.2083V18.375C19.25 18.4524 19.2193 18.5265 19.1646 18.5812C19.1099 18.6359 19.0357 18.6667 18.9583 18.6667H17.7917C17.7143 18.6667 17.6401 18.6359 17.5854 18.5812C17.5307 18.5265 17.5 18.4524 17.5 18.375V17.2083Z" fill="#F2994A"/>
</svg>
