<svg width="28" height="28" viewBox="0 0 28 28" fill="none" xmlns="http://www.w3.org/2000/svg">
<path d="M14.0002 2.33301C11.6927 2.33301 9.43709 3.01725 7.51852 4.2992C5.59994 5.58115 4.1046 7.40323 3.22157 9.53503C2.33855 11.6668 2.10751 14.0126 2.55767 16.2757C3.00783 18.5388 4.11898 20.6176 5.75059 22.2493C7.3822 23.8809 9.461 24.992 11.7241 25.4422C13.9872 25.8923 16.333 25.6613 18.4648 24.7783C20.5966 23.8952 22.4187 22.3999 23.7006 20.4813C24.9826 18.5628 25.6668 16.3071 25.6668 13.9997C25.6668 12.4676 25.3651 10.9505 24.7788 9.53503C24.1925 8.11957 23.3331 6.83345 22.2497 5.7501C21.1664 4.66675 19.8803 3.80738 18.4648 3.22108C17.0493 2.63478 15.5323 2.33301 14.0002 2.33301ZM14.0002 23.333C12.1542 23.333 10.3497 22.7856 8.81485 21.7601C7.27999 20.7345 6.08371 19.2768 5.37729 17.5714C4.67087 15.8659 4.48604 13.9893 4.84617 12.1788C5.2063 10.3683 6.09521 8.7053 7.4005 7.40001C8.70579 6.09472 10.3688 5.20581 12.1793 4.84568C13.9898 4.48555 15.8664 4.67038 17.5719 5.3768C19.2773 6.08322 20.735 7.27949 21.7605 8.81435C22.7861 10.3492 23.3335 12.1537 23.3335 13.9997C23.3335 16.475 22.3502 18.849 20.5998 20.5993C18.8495 22.3497 16.4755 23.333 14.0002 23.333Z" fill="#219653"/>
<path d="M14.0002 12.8333C11.6668 12.8333 11.6668 12.0983 11.6668 11.6667C11.6668 11.235 12.4835 10.5 14.0002 10.5C15.5168 10.5 15.6218 11.2467 15.6335 11.6667H17.9668C17.9511 10.8719 17.6652 10.1061 17.1563 9.49545C16.6474 8.88476 15.9457 8.4655 15.1668 8.30667V7H12.8335V8.27167C10.5002 8.65667 9.3335 10.1617 9.3335 11.6667C9.3335 12.9733 9.94016 15.1667 14.0002 15.1667C16.3335 15.1667 16.3335 15.96 16.3335 16.3333C16.3335 16.7067 15.6102 17.5 14.0002 17.5C11.8535 17.5 11.6668 16.4967 11.6668 16.3333H9.3335C9.3335 17.4067 10.1035 19.3083 12.8335 19.74V21H15.1668V19.74C17.5002 19.3433 18.6668 17.8383 18.6668 16.3333C18.6668 15.0267 18.0602 12.8333 14.0002 12.8333Z" fill="#219653"/>
</svg>
