<svg class="img-responsive hero-banner-svg" width="1112" height="521" viewBox="0 0 1112 521" fill="none" xmlns="http://www.w3.org/2000/svg">
    <text fill="black" xml:space="preserve" style="white-space: pre" font-size="16" letter-spacing="0em"><tspan x="0" y="514.44">W1</tspan></text>
    <text fill="black" xml:space="preserve" style="white-space: pre" font-size="16" letter-spacing="0em"><tspan x="470" y="514.44">W7</tspan></text>
    <text fill="black" xml:space="preserve" style="white-space: pre" font-size="16" letter-spacing="0em"><tspan x="234" y="514.44">W4</tspan></text>
    <text fill="black" xml:space="preserve" style="white-space: pre" font-size="16" letter-spacing="0em"><tspan x="706" y="514.44">W10</tspan></text>
    <text fill="black" xml:space="preserve" style="white-space: pre" font-size="16" letter-spacing="0em"><tspan x="957" y="514.44">W13</tspan></text>
    <text fill="black" xml:space="preserve" style="white-space: pre" font-size="16" letter-spacing="0em"><tspan x="76" y="514.44">W2</tspan></text>
    <text fill="black" xml:space="preserve" style="white-space: pre" font-size="16" letter-spacing="0em"><tspan x="548" y="514.44">W8</tspan></text>
    <text fill="black" xml:space="preserve" style="white-space: pre" font-size="16" letter-spacing="0em"><tspan x="313" y="514.44">W5</tspan></text>
    <text fill="black" xml:space="preserve" style="white-space: pre" font-size="16" letter-spacing="0em"><tspan x="792" y="514.44">W11</tspan></text>
    <text fill="black" xml:space="preserve" style="white-space: pre" font-size="16" letter-spacing="0em"><tspan x="1041" y="514.44">W14</tspan></text>
    <text fill="black" xml:space="preserve" style="white-space: pre" font-size="16" letter-spacing="0em"><tspan x="155" y="514.44">W3</tspan></text>
    <text fill="black" xml:space="preserve" style="white-space: pre" font-size="16" letter-spacing="0em"><tspan x="627" y="514.44">W9</tspan></text>
    <text fill="black" xml:space="preserve" style="white-space: pre" font-size="16" letter-spacing="0em"><tspan x="392" y="514.44">W6</tspan></text>
    <text fill="black" xml:space="preserve" style="white-space: pre" font-size="16" letter-spacing="0em"><tspan x="873" y="514.44">W12</tspan></text>
    <path d="M193 457C282.654 447.358 372.912 430.811 460.376 407.606C518.128 392.283 574.662 374.058 629 353" stroke="#407BFF" stroke-width="9" stroke-linecap="round" stroke-dasharray="18 18"></path>
    <path d="M8 467C68.6288 467 130.67 463.64 193 457" stroke="#F57098" stroke-width="9" stroke-linecap="round"></path>
    <path d="M1060 62C1044.81 81.7426 1028.2 100.807 1010.28 119.185C957.475 173.342 893.382 221.531 821.407 263.509C761.712 298.325 696.595 328.868 628 355" stroke="#22C55E" stroke-width="9" stroke-linecap="round" stroke-dasharray="18 18"></path>
    <text fill="black" xml:space="preserve" style="white-space: pre" font-size="20" letter-spacing="0em"><tspan x="135.375" y="368.83">Credits</tspan></text>
    <text fill="black" xml:space="preserve" style="white-space: pre" font-size="20" letter-spacing="0em"><tspan x="356.066" y="293.83">Mentoring
</tspan><tspan x="368.557" y="321.83">Session</tspan></text>
    <text fill="black" xml:space="preserve" style="white-space: pre" font-size="20" letter-spacing="0em"><tspan x="533.125" y="256.83">Grant</tspan></text>
    <text fill="black" xml:space="preserve" style="white-space: pre" font-size="20" letter-spacing="0em"><tspan x="715.141" y="182.83">VC 
</tspan><tspan x="705.248" y="210.83">Intros</tspan></text>
    <text fill="black" xml:space="preserve" style="white-space: pre" font-size="20" letter-spacing="0em"><tspan x="835.258" y="115.83">Distribution</tspan></text>
    <g clip-path="url(#clip0_2542_7277)">
    <path d="M1059.6 37.243C1061.93 35.838 1064.83 37.8035 1064.39 40.4873L1061.79 56.384C1061.74 56.7362 1061.59 57.0682 1061.37 57.3495C1061.15 57.6308 1060.86 57.8523 1060.54 57.9935C1060.21 58.1347 1059.85 58.1912 1059.5 58.1576C1059.14 58.1241 1058.8 58.0016 1058.5 57.8016L1045.72 49.1479C1045.42 48.9479 1045.18 48.6769 1045.02 48.3598C1044.85 48.0427 1044.77 47.6897 1044.78 47.3333C1044.79 46.977 1044.89 46.6287 1045.07 46.3205C1045.25 46.0123 1045.5 45.7542 1045.81 45.5699L1059.6 37.2409L1059.6 37.243Z" fill="url(#paint0_linear_2542_7277)"></path>
    <path d="M1059.6 37.243C1061.93 35.838 1064.83 37.8035 1064.39 40.4873L1061.79 56.384C1061.74 56.7362 1061.59 57.0682 1061.37 57.3495C1061.15 57.6308 1060.86 57.8523 1060.54 57.9935C1060.21 58.1347 1059.85 58.1912 1059.5 58.1576C1059.14 58.1241 1058.8 58.0016 1058.5 57.8016L1045.72 49.1479C1045.42 48.9479 1045.18 48.6769 1045.02 48.3598C1044.85 48.0427 1044.77 47.6897 1044.78 47.3333C1044.79 46.977 1044.89 46.6287 1045.07 46.3205C1045.25 46.0123 1045.5 45.7542 1045.81 45.5699L1059.6 37.2409L1059.6 37.243Z" fill="url(#paint1_radial_2542_7277)"></path>
    <path d="M1059.6 37.243C1061.93 35.838 1064.83 37.8035 1064.39 40.4873L1061.79 56.384C1061.74 56.7362 1061.59 57.0682 1061.37 57.3495C1061.15 57.6308 1060.86 57.8523 1060.54 57.9935C1060.21 58.1347 1059.85 58.1912 1059.5 58.1576C1059.14 58.1241 1058.8 58.0016 1058.5 57.8016L1045.72 49.1479C1045.42 48.9479 1045.18 48.6769 1045.02 48.3598C1044.85 48.0427 1044.77 47.6897 1044.78 47.3333C1044.79 46.977 1044.89 46.6287 1045.07 46.3205C1045.25 46.0123 1045.5 45.7542 1045.81 45.5699L1059.6 37.2409L1059.6 37.243Z" fill="url(#paint2_linear_2542_7277)"></path>
    <path d="M1074.53 47.3485C1076.86 45.943 1079.76 47.9085 1079.32 50.5923L1076.72 66.4899C1076.66 66.8417 1076.52 67.1733 1076.3 67.4543C1076.08 67.7352 1075.79 67.9565 1075.47 68.0976C1075.14 68.2388 1074.78 68.2953 1074.43 68.262C1074.07 68.2287 1073.73 68.1066 1073.44 67.907L1060.65 59.2534C1060.35 59.0534 1060.11 58.7824 1059.95 58.4653C1059.79 58.1482 1059.71 57.7952 1059.72 57.4388C1059.72 57.0824 1059.82 56.7341 1060 56.426C1060.18 56.1178 1060.44 55.8597 1060.74 55.6754L1074.53 47.3464L1074.53 47.3485Z" fill="url(#paint3_linear_2542_7277)"></path>
    <path d="M1074.53 47.3485C1076.86 45.943 1079.76 47.9085 1079.32 50.5923L1076.72 66.4899C1076.66 66.8417 1076.52 67.1733 1076.3 67.4543C1076.08 67.7352 1075.79 67.9565 1075.47 68.0976C1075.14 68.2388 1074.78 68.2953 1074.43 68.262C1074.07 68.2287 1073.73 68.1066 1073.44 67.907L1060.65 59.2534C1060.35 59.0534 1060.11 58.7824 1059.95 58.4653C1059.79 58.1482 1059.71 57.7952 1059.72 57.4388C1059.72 57.0824 1059.82 56.7341 1060 56.426C1060.18 56.1178 1060.44 55.8597 1060.74 55.6754L1074.53 47.3464L1074.53 47.3485Z" fill="url(#paint4_radial_2542_7277)"></path>
    <path d="M1074.53 47.3485C1076.86 45.943 1079.76 47.9085 1079.32 50.5923L1076.72 66.4899C1076.66 66.8417 1076.52 67.1733 1076.3 67.4543C1076.08 67.7352 1075.79 67.9565 1075.47 68.0976C1075.14 68.2388 1074.78 68.2953 1074.43 68.262C1074.07 68.2287 1073.73 68.1066 1073.44 67.907L1060.65 59.2534C1060.35 59.0534 1060.11 58.7824 1059.95 58.4653C1059.79 58.1482 1059.71 57.7952 1059.72 57.4388C1059.72 57.0824 1059.82 56.7341 1060 56.426C1060.18 56.1178 1060.44 55.8597 1060.74 55.6754L1074.53 47.3464L1074.53 47.3485Z" fill="url(#paint5_radial_2542_7277)"></path>
    <g filter="url(#filter0_i_2542_7277)">
    <path d="M1080.17 11.2697C1080.22 11.236 1080.28 11.2187 1080.34 11.2197C1080.41 11.2207 1080.47 11.2401 1080.52 11.2755L1095.19 21.2811C1095.24 21.3161 1095.28 21.3656 1095.3 21.4233C1095.32 21.4811 1095.33 21.5445 1095.32 21.6058C1093.77 29.3926 1091.2 37.8529 1086.82 44.3286C1082.55 50.6355 1074.47 56.8648 1067.04 61.7352L1053.37 52.485C1055.13 43.7711 1057.91 33.9615 1062.18 27.6547C1066.57 21.1587 1073.5 15.6099 1080.17 11.2722L1080.17 11.2697Z" fill="url(#paint6_linear_2542_7277)"></path>
    <path d="M1080.17 11.2697C1080.22 11.236 1080.28 11.2187 1080.34 11.2197C1080.41 11.2207 1080.47 11.2401 1080.52 11.2755L1095.19 21.2811C1095.24 21.3161 1095.28 21.3656 1095.3 21.4233C1095.32 21.4811 1095.33 21.5445 1095.32 21.6058C1093.77 29.3926 1091.2 37.8529 1086.82 44.3286C1082.55 50.6355 1074.47 56.8648 1067.04 61.7352L1053.37 52.485C1055.13 43.7711 1057.91 33.9615 1062.18 27.6547C1066.57 21.1587 1073.5 15.6099 1080.17 11.2722L1080.17 11.2697Z" fill="url(#paint7_radial_2542_7277)"></path>
    <path d="M1080.17 11.2697C1080.22 11.236 1080.28 11.2187 1080.34 11.2197C1080.41 11.2207 1080.47 11.2401 1080.52 11.2755L1095.19 21.2811C1095.24 21.3161 1095.28 21.3656 1095.3 21.4233C1095.32 21.4811 1095.33 21.5445 1095.32 21.6058C1093.77 29.3926 1091.2 37.8529 1086.82 44.3286C1082.55 50.6355 1074.47 56.8648 1067.04 61.7352L1053.37 52.485C1055.13 43.7711 1057.91 33.9615 1062.18 27.6547C1066.57 21.1587 1073.5 15.6099 1080.17 11.2722L1080.17 11.2697Z" fill="url(#paint8_radial_2542_7277)"></path>
    <path d="M1080.17 11.2697C1080.22 11.236 1080.28 11.2187 1080.34 11.2197C1080.41 11.2207 1080.47 11.2401 1080.52 11.2755L1095.19 21.2811C1095.24 21.3161 1095.28 21.3656 1095.3 21.4233C1095.32 21.4811 1095.33 21.5445 1095.32 21.6058C1093.77 29.3926 1091.2 37.8529 1086.82 44.3286C1082.55 50.6355 1074.47 56.8648 1067.04 61.7352L1053.37 52.485C1055.13 43.7711 1057.91 33.9615 1062.18 27.6547C1066.57 21.1587 1073.5 15.6099 1080.17 11.2722L1080.17 11.2697Z" fill="url(#paint9_radial_2542_7277)"></path>
    <path d="M1080.17 11.2697C1080.22 11.236 1080.28 11.2187 1080.34 11.2197C1080.41 11.2207 1080.47 11.2401 1080.52 11.2755L1095.19 21.2811C1095.24 21.3161 1095.28 21.3656 1095.3 21.4233C1095.32 21.4811 1095.33 21.5445 1095.32 21.6058C1093.77 29.3926 1091.2 37.8529 1086.82 44.3286C1082.55 50.6355 1074.47 56.8648 1067.04 61.7352L1053.37 52.485C1055.13 43.7711 1057.91 33.9615 1062.18 27.6547C1066.57 21.1587 1073.5 15.6099 1080.17 11.2722L1080.17 11.2697Z" fill="url(#paint10_radial_2542_7277)"></path>
    </g>
    <g filter="url(#filter1_iii_2542_7277)">
    <path d="M1087.57 26.0966C1087.77 27.0243 1087.78 27.9815 1087.6 28.9126C1087.42 29.8437 1087.06 30.7299 1086.53 31.5196C1086.01 32.3093 1085.33 32.9866 1084.54 33.5121C1083.75 34.0375 1082.87 34.4006 1081.94 34.5801C1081.01 34.7595 1080.05 34.7519 1079.12 34.5575C1078.19 34.3631 1077.31 33.9858 1076.53 33.4478C1075.75 32.9097 1075.09 32.2216 1074.58 31.4236C1074.06 30.6256 1073.72 29.7337 1073.55 28.7999C1073.23 26.9556 1073.64 25.0583 1074.71 23.5168C1075.77 21.9753 1077.4 20.9128 1079.23 20.5583C1081.07 20.2038 1082.98 20.5857 1084.54 21.6216C1086.1 22.6575 1087.19 24.2646 1087.57 26.0966Z" fill="url(#paint11_linear_2542_7277)"></path>
    <path d="M1087.57 26.0966C1087.77 27.0243 1087.78 27.9815 1087.6 28.9126C1087.42 29.8437 1087.06 30.7299 1086.53 31.5196C1086.01 32.3093 1085.33 32.9866 1084.54 33.5121C1083.75 34.0375 1082.87 34.4006 1081.94 34.5801C1081.01 34.7595 1080.05 34.7519 1079.12 34.5575C1078.19 34.3631 1077.31 33.9858 1076.53 33.4478C1075.75 32.9097 1075.09 32.2216 1074.58 31.4236C1074.06 30.6256 1073.72 29.7337 1073.55 28.7999C1073.23 26.9556 1073.64 25.0583 1074.71 23.5168C1075.77 21.9753 1077.4 20.9128 1079.23 20.5583C1081.07 20.2038 1082.98 20.5857 1084.54 21.6216C1086.1 22.6575 1087.19 24.2646 1087.57 26.0966Z" fill="url(#paint12_radial_2542_7277)"></path>
    </g>
    <path d="M1085.41 26.5122C1085.55 27.1553 1085.56 27.8194 1085.44 28.4657C1085.32 29.112 1085.07 29.7274 1084.7 30.2759C1084.34 30.8244 1083.87 31.295 1083.32 31.66C1082.78 32.0251 1082.16 32.2772 1081.52 32.4017C1080.87 32.5263 1080.21 32.5207 1079.56 32.3852C1078.92 32.2498 1078.31 31.9873 1077.77 31.613C1077.23 31.2388 1076.77 30.7604 1076.41 30.2058C1076.06 29.6512 1075.82 29.0316 1075.71 28.3834C1075.49 27.1088 1075.78 25.7994 1076.52 24.736C1077.25 23.6726 1078.37 22.9399 1079.64 22.695C1080.91 22.4502 1082.23 22.7127 1083.31 23.4263C1084.39 24.1399 1085.14 25.2477 1085.41 26.5122Z" fill="url(#paint13_radial_2542_7277)"></path>
    <g filter="url(#filter2_i_2542_7277)">
    <path d="M1048.94 73.522C1047.18 72.3312 1045.8 61.9845 1050.61 58.8921C1050.61 58.8921 1055.43 55.7997 1059.43 58.49C1063.44 61.1804 1062.65 65.2267 1062.65 65.2267C1062.03 69.9367 1056.09 72.9067 1055.21 72.3105C1054.72 71.9821 1055.31 71.1001 1054.93 70.8374C1054.54 70.5726 1054.1 71.0434 1052.86 72.0004C1051.97 72.6827 1049.64 73.9986 1048.94 73.522Z" fill="url(#paint14_radial_2542_7277)"></path>
    <path d="M1048.94 73.522C1047.18 72.3312 1045.8 61.9845 1050.61 58.8921C1050.61 58.8921 1055.43 55.7997 1059.43 58.49C1063.44 61.1804 1062.65 65.2267 1062.65 65.2267C1062.03 69.9367 1056.09 72.9067 1055.21 72.3105C1054.72 71.9821 1055.31 71.1001 1054.93 70.8374C1054.54 70.5726 1054.1 71.0434 1052.86 72.0004C1051.97 72.6827 1049.64 73.9986 1048.94 73.522Z" fill="url(#paint15_radial_2542_7277)"></path>
    </g>
    <path d="M1053.09 54.2171C1053.32 53.8702 1053.62 53.5729 1053.97 53.3423C1054.32 53.1116 1054.71 52.9521 1055.12 52.8728C1055.53 52.7935 1055.96 52.796 1056.37 52.8802C1056.78 52.9644 1057.17 53.1285 1057.51 53.3633L1066.31 59.3192C1066.99 59.8032 1067.45 60.5311 1067.59 61.3482C1067.74 62.1653 1067.56 63.0071 1067.09 63.6946C1066.63 64.3821 1065.91 64.8612 1065.1 65.0298C1064.29 65.1985 1063.44 65.0435 1062.74 64.5978L1053.94 58.6448C1053.59 58.4102 1053.3 58.1096 1053.07 57.7601C1052.83 57.4105 1052.68 57.019 1052.6 56.6078C1052.52 56.1966 1052.52 55.7739 1052.6 55.3636C1052.69 54.9534 1052.85 54.5638 1053.09 54.2171Z" fill="url(#paint16_linear_2542_7277)"></path>
    <path d="M1053.09 54.2171C1053.32 53.8702 1053.62 53.5729 1053.97 53.3423C1054.32 53.1116 1054.71 52.9521 1055.12 52.8728C1055.53 52.7935 1055.96 52.796 1056.37 52.8802C1056.78 52.9644 1057.17 53.1285 1057.51 53.3633L1066.31 59.3192C1066.99 59.8032 1067.45 60.5311 1067.59 61.3482C1067.74 62.1653 1067.56 63.0071 1067.09 63.6946C1066.63 64.3821 1065.91 64.8612 1065.1 65.0298C1064.29 65.1985 1063.44 65.0435 1062.74 64.5978L1053.94 58.6448C1053.59 58.4102 1053.3 58.1096 1053.07 57.7601C1052.83 57.4105 1052.68 57.019 1052.6 56.6078C1052.52 56.1966 1052.52 55.7739 1052.6 55.3636C1052.69 54.9534 1052.85 54.5638 1053.09 54.2171Z" fill="url(#paint17_radial_2542_7277)"></path>
    <path d="M1053.09 54.2171C1053.32 53.8702 1053.62 53.5729 1053.97 53.3423C1054.32 53.1116 1054.71 52.9521 1055.12 52.8728C1055.53 52.7935 1055.96 52.796 1056.37 52.8802C1056.78 52.9644 1057.17 53.1285 1057.51 53.3633L1066.31 59.3192C1066.99 59.8032 1067.45 60.5311 1067.59 61.3482C1067.74 62.1653 1067.56 63.0071 1067.09 63.6946C1066.63 64.3821 1065.91 64.8612 1065.1 65.0298C1064.29 65.1985 1063.44 65.0435 1062.74 64.5978L1053.94 58.6448C1053.59 58.4102 1053.3 58.1096 1053.07 57.7601C1052.83 57.4105 1052.68 57.019 1052.6 56.6078C1052.52 56.1966 1052.52 55.7739 1052.6 55.3636C1052.69 54.9534 1052.85 54.5638 1053.09 54.2171Z" fill="url(#paint18_radial_2542_7277)"></path>
    <path d="M1094.02 7.12814C1091.67 5.53317 1088.25 6.4247 1085.89 7.77953C1084.11 8.79964 1082.36 9.86434 1080.63 10.9726C1080.6 10.9916 1080.58 11.0175 1080.56 11.0481C1080.54 11.0787 1080.53 11.1131 1080.53 11.1481C1080.53 11.1831 1080.54 11.2177 1080.56 11.2488C1080.57 11.2799 1080.6 11.3066 1080.62 11.3264L1095.1 21.1932C1095.13 21.2122 1095.16 21.2239 1095.2 21.2272C1095.23 21.2305 1095.27 21.2253 1095.3 21.2121C1095.33 21.1989 1095.36 21.178 1095.38 21.1514C1095.4 21.1247 1095.42 21.0931 1095.43 21.0592C1095.82 19.0237 1096.16 16.9786 1096.45 14.9257C1096.82 12.2694 1096.92 9.09028 1094.02 7.12814Z" fill="url(#paint19_linear_2542_7277)"></path>
    <path d="M1094.02 7.12814C1091.67 5.53317 1088.25 6.4247 1085.89 7.77953C1084.11 8.79964 1082.36 9.86434 1080.63 10.9726C1080.6 10.9916 1080.58 11.0175 1080.56 11.0481C1080.54 11.0787 1080.53 11.1131 1080.53 11.1481C1080.53 11.1831 1080.54 11.2177 1080.56 11.2488C1080.57 11.2799 1080.6 11.3066 1080.62 11.3264L1095.1 21.1932C1095.13 21.2122 1095.16 21.2239 1095.2 21.2272C1095.23 21.2305 1095.27 21.2253 1095.3 21.2121C1095.33 21.1989 1095.36 21.178 1095.38 21.1514C1095.4 21.1247 1095.42 21.0931 1095.43 21.0592C1095.82 19.0237 1096.16 16.9786 1096.45 14.9257C1096.82 12.2694 1096.92 9.09028 1094.02 7.12814Z" fill="url(#paint20_radial_2542_7277)"></path>
    <path d="M1094.02 7.12814C1091.67 5.53317 1088.25 6.4247 1085.89 7.77953C1084.11 8.79964 1082.36 9.86434 1080.63 10.9726C1080.6 10.9916 1080.58 11.0175 1080.56 11.0481C1080.54 11.0787 1080.53 11.1131 1080.53 11.1481C1080.53 11.1831 1080.54 11.2177 1080.56 11.2488C1080.57 11.2799 1080.6 11.3066 1080.62 11.3264L1095.1 21.1932C1095.13 21.2122 1095.16 21.2239 1095.2 21.2272C1095.23 21.2305 1095.27 21.2253 1095.3 21.2121C1095.33 21.1989 1095.36 21.178 1095.38 21.1514C1095.4 21.1247 1095.42 21.0931 1095.43 21.0592C1095.82 19.0237 1096.16 16.9786 1096.45 14.9257C1096.82 12.2694 1096.92 9.09028 1094.02 7.12814Z" fill="url(#paint21_linear_2542_7277)"></path>
    <path d="M1067.07 42.2954C1069.39 40.8903 1072.3 42.8558 1071.86 45.5396L1069.26 61.4367C1069.2 61.7889 1069.05 62.1209 1068.84 62.4022C1068.62 62.6835 1068.33 62.905 1068 63.0462C1067.67 63.1875 1067.32 63.2439 1066.96 63.2104C1066.6 63.1768 1066.26 63.0544 1065.97 62.8543L1053.18 54.2007C1052.89 54.0007 1052.65 53.7296 1052.48 53.4125C1052.32 53.0954 1052.24 52.7424 1052.25 52.3861C1052.26 52.0297 1052.36 51.6814 1052.54 51.3732C1052.71 51.0651 1052.97 50.8069 1053.27 50.6226L1067.07 42.2933L1067.07 42.2954Z" fill="url(#paint22_linear_2542_7277)"></path>
    <path d="M1067.07 42.2954C1069.39 40.8903 1072.3 42.8558 1071.86 45.5396L1069.26 61.4367C1069.2 61.7889 1069.05 62.1209 1068.84 62.4022C1068.62 62.6835 1068.33 62.905 1068 63.0462C1067.67 63.1875 1067.32 63.2439 1066.96 63.2104C1066.6 63.1768 1066.26 63.0544 1065.97 62.8543L1053.18 54.2007C1052.89 54.0007 1052.65 53.7296 1052.48 53.4125C1052.32 53.0954 1052.24 52.7424 1052.25 52.3861C1052.26 52.0297 1052.36 51.6814 1052.54 51.3732C1052.71 51.0651 1052.97 50.8069 1053.27 50.6226L1067.07 42.2933L1067.07 42.2954Z" fill="url(#paint23_radial_2542_7277)"></path>
    <path d="M1067.07 42.2954C1069.39 40.8903 1072.3 42.8558 1071.86 45.5396L1069.26 61.4367C1069.2 61.7889 1069.05 62.1209 1068.84 62.4022C1068.62 62.6835 1068.33 62.905 1068 63.0462C1067.67 63.1875 1067.32 63.2439 1066.96 63.2104C1066.6 63.1768 1066.26 63.0544 1065.97 62.8543L1053.18 54.2007C1052.89 54.0007 1052.65 53.7296 1052.48 53.4125C1052.32 53.0954 1052.24 52.7424 1052.25 52.3861C1052.26 52.0297 1052.36 51.6814 1052.54 51.3732C1052.71 51.0651 1052.97 50.8069 1053.27 50.6226L1067.07 42.2933L1067.07 42.2954Z" fill="url(#paint24_radial_2542_7277)"></path>
    <path d="M1067.07 42.2954C1069.39 40.8903 1072.3 42.8558 1071.86 45.5396L1069.26 61.4367C1069.2 61.7889 1069.05 62.1209 1068.84 62.4022C1068.62 62.6835 1068.33 62.905 1068 63.0462C1067.67 63.1875 1067.32 63.2439 1066.96 63.2104C1066.6 63.1768 1066.26 63.0544 1065.97 62.8543L1053.18 54.2007C1052.89 54.0007 1052.65 53.7296 1052.48 53.4125C1052.32 53.0954 1052.24 52.7424 1052.25 52.3861C1052.26 52.0297 1052.36 51.6814 1052.54 51.3732C1052.71 51.0651 1052.97 50.8069 1053.27 50.6226L1067.07 42.2933L1067.07 42.2954Z" fill="url(#paint25_radial_2542_7277)"></path>
    <g filter="url(#filter3_f_2542_7277)">
    <path d="M1060.08 55.174L1070.04 43.7154L1065.07 58.6072L1060.08 55.174Z" fill="url(#paint26_linear_2542_7277)"></path>
    </g>
    </g>
    <circle cx="171" cy="458" r="8" stroke="#F57098" stroke-width="2"></circle>
    <circle cx="404" cy="422" r="8" stroke="#407BFF" stroke-width="2"></circle>
    <circle cx="561" cy="377" r="8" stroke="#407BFF" stroke-width="2"></circle>
    <circle cx="732" cy="312" r="8" stroke="#22C55E" stroke-width="2"></circle>
    <circle cx="888" cy="220" r="8" stroke="#22C55E" stroke-width="2"></circle>
    <path d="M170.293 444.707C170.683 445.098 171.317 445.098 171.707 444.707L178.071 438.343C178.462 437.953 178.462 437.319 178.071 436.929C177.681 436.538 177.047 436.538 176.657 436.929L171 442.586L165.343 436.929C164.953 436.538 164.319 436.538 163.929 436.929C163.538 437.319 163.538 437.953 163.929 438.343L170.293 444.707ZM170 394L170 444L172 444L172 394L170 394Z" fill="#F57098"></path>
    <path d="M403.293 408.707C403.683 409.098 404.317 409.098 404.707 408.707L411.071 402.343C411.462 401.953 411.462 401.319 411.071 400.929C410.681 400.538 410.047 400.538 409.657 400.929L404 406.586L398.343 400.929C397.953 400.538 397.319 400.538 396.929 400.929C396.538 401.319 396.538 401.953 396.929 402.343L403.293 408.707ZM403 347L403 408L405 408L405 347L403 347Z" fill="#407BFF"></path>
    <path d="M560.293 363.707C560.683 364.098 561.317 364.098 561.707 363.707L568.071 357.343C568.462 356.953 568.462 356.319 568.071 355.929C567.681 355.538 567.047 355.538 566.657 355.929L561 361.586L555.343 355.929C554.953 355.538 554.319 355.538 553.929 355.929C553.538 356.319 553.538 356.953 553.929 357.343L560.293 363.707ZM560 282L560 363L562 363L562 282L560 282Z" fill="#407BFF"></path>
    <path d="M731.293 298.707C731.683 299.098 732.317 299.098 732.707 298.707L739.071 292.343C739.462 291.953 739.462 291.319 739.071 290.929C738.681 290.538 738.047 290.538 737.657 290.929L732 296.586L726.343 290.929C725.953 290.538 725.319 290.538 724.929 290.929C724.538 291.319 724.538 291.953 724.929 292.343L731.293 298.707ZM731 236L731 298L733 298L733 236L731 236Z" fill="#22C55E"></path>
    <path d="M887.293 206.707C887.683 207.098 888.317 207.098 888.707 206.707L895.071 200.343C895.462 199.953 895.462 199.319 895.071 198.929C894.681 198.538 894.047 198.538 893.657 198.929L888 204.586L882.343 198.929C881.953 198.538 881.319 198.538 880.929 198.929C880.538 199.319 880.538 199.953 880.929 200.343L887.293 206.707ZM887 149L887 206L889 206L889 149L887 149Z" fill="#22C55E"></path>
    <defs>
    <filter id="filter0_i_2542_7277" x="1052.84" y="10.1572" width="42.4863" height="51.5781" filterUnits="userSpaceOnUse" color-interpolation-filters="sRGB">
    <feFlood flood-opacity="0" result="BackgroundImageFix"></feFlood>
    <feBlend mode="normal" in="SourceGraphic" in2="BackgroundImageFix" result="shape"></feBlend>
    <feColorMatrix in="SourceAlpha" type="matrix" values="0 0 0 0 0 0 0 0 0 0 0 0 0 0 0 0 0 0 127 0" result="hardAlpha"></feColorMatrix>
    <feOffset dx="-0.53125" dy="-1.0625"></feOffset>
    <feGaussianBlur stdDeviation="1.59375"></feGaussianBlur>
    <feComposite in2="hardAlpha" operator="arithmetic" k2="-1" k3="1"></feComposite>
    <feColorMatrix type="matrix" values="0 0 0 0 0.745098 0 0 0 0 0.772549 0 0 0 0 0.952941 0 0 0 1 0"></feColorMatrix>
    <feBlend mode="normal" in2="shape" result="effect1_innerShadow_2542_7277"></feBlend>
    </filter>
    <filter id="filter1_iii_2542_7277" x="1073.23" y="20.2162" width="14.7043" height="15.024" filterUnits="userSpaceOnUse" color-interpolation-filters="sRGB">
    <feFlood flood-opacity="0" result="BackgroundImageFix"></feFlood>
    <feBlend mode="normal" in="SourceGraphic" in2="BackgroundImageFix" result="shape"></feBlend>
    <feColorMatrix in="SourceAlpha" type="matrix" values="0 0 0 0 0 0 0 0 0 0 0 0 0 0 0 0 0 0 127 0" result="hardAlpha"></feColorMatrix>
    <feOffset dy="0.53125"></feOffset>
    <feGaussianBlur stdDeviation="1.0625"></feGaussianBlur>
    <feComposite in2="hardAlpha" operator="arithmetic" k2="-1" k3="1"></feComposite>
    <feColorMatrix type="matrix" values="0 0 0 0 0.866667 0 0 0 0 0.764706 0 0 0 0 0.847059 0 0 0 1 0"></feColorMatrix>
    <feBlend mode="normal" in2="shape" result="effect1_innerShadow_2542_7277"></feBlend>
    <feColorMatrix in="SourceAlpha" type="matrix" values="0 0 0 0 0 0 0 0 0 0 0 0 0 0 0 0 0 0 127 0" result="hardAlpha"></feColorMatrix>
    <feOffset dx="-0.2125" dy="0.2125"></feOffset>
    <feGaussianBlur stdDeviation="0.10625"></feGaussianBlur>
    <feComposite in2="hardAlpha" operator="arithmetic" k2="-1" k3="1"></feComposite>
    <feColorMatrix type="matrix" values="0 0 0 0 0.721569 0 0 0 0 0.690196 0 0 0 0 0.701961 0 0 0 1 0"></feColorMatrix>
    <feBlend mode="normal" in2="effect1_innerShadow_2542_7277" result="effect2_innerShadow_2542_7277"></feBlend>
    <feColorMatrix in="SourceAlpha" type="matrix" values="0 0 0 0 0 0 0 0 0 0 0 0 0 0 0 0 0 0 127 0" result="hardAlpha"></feColorMatrix>
    <feOffset dx="0.2125" dy="-0.2125"></feOffset>
    <feGaussianBlur stdDeviation="0.10625"></feGaussianBlur>
    <feComposite in2="hardAlpha" operator="arithmetic" k2="-1" k3="1"></feComposite>
    <feColorMatrix type="matrix" values="0 0 0 0 0.615686 0 0 0 0 0.560784 0 0 0 0 0.65098 0 0 0 1 0"></feColorMatrix>
    <feBlend mode="normal" in2="effect2_innerShadow_2542_7277" result="effect3_innerShadow_2542_7277"></feBlend>
    </filter>
    <filter id="filter2_i_2542_7277" x="1047.31" y="56.9656" width="15.4062" height="16.6584" filterUnits="userSpaceOnUse" color-interpolation-filters="sRGB">
    <feFlood flood-opacity="0" result="BackgroundImageFix"></feFlood>
    <feBlend mode="normal" in="SourceGraphic" in2="BackgroundImageFix" result="shape"></feBlend>
    <feColorMatrix in="SourceAlpha" type="matrix" values="0 0 0 0 0 0 0 0 0 0 0 0 0 0 0 0 0 0 127 0" result="hardAlpha"></feColorMatrix>
    <feOffset dy="-0.425"></feOffset>
    <feGaussianBlur stdDeviation="0.425"></feGaussianBlur>
    <feComposite in2="hardAlpha" operator="arithmetic" k2="-1" k3="1"></feComposite>
    <feColorMatrix type="matrix" values="0 0 0 0 0.847059 0 0 0 0 0.505882 0 0 0 0 0.360784 0 0 0 1 0"></feColorMatrix>
    <feBlend mode="normal" in2="shape" result="effect1_innerShadow_2542_7277"></feBlend>
    </filter>
    <filter id="filter3_f_2542_7277" x="1057.95" y="41.5908" width="14.2129" height="19.1416" filterUnits="userSpaceOnUse" color-interpolation-filters="sRGB">
    <feFlood flood-opacity="0" result="BackgroundImageFix"></feFlood>
    <feBlend mode="normal" in="SourceGraphic" in2="BackgroundImageFix" result="shape"></feBlend>
    <feGaussianBlur stdDeviation="1.0625" result="effect1_foregroundBlur_2542_7277"></feGaussianBlur>
    </filter>
    <linearGradient id="paint0_linear_2542_7277" x1="1055.89" y1="45.7279" x2="1045.12" y2="46.0203" gradientUnits="userSpaceOnUse">
    <stop stop-color="#EE2452"></stop>
    <stop offset="1" stop-color="#F63E7A"></stop>
    </linearGradient>
    <radialGradient id="paint1_radial_2542_7277" cx="0" cy="0" r="1" gradientUnits="userSpaceOnUse" gradientTransform="translate(1043.87 47.5152) rotate(-30.8713) scale(17.0036 2.89096)">
    <stop offset="0.164" stop-color="#FF8DB0"></stop>
    <stop offset="1" stop-color="#FF8DB0" stop-opacity="0"></stop>
    </radialGradient>
    <linearGradient id="paint2_linear_2542_7277" x1="1050.17" y1="52.0777" x2="1051.55" y2="50.091" gradientUnits="userSpaceOnUse">
    <stop offset="0.491" stop-color="#DD467C"></stop>
    <stop offset="1" stop-color="#DD467C" stop-opacity="0"></stop>
    </linearGradient>
    <linearGradient id="paint3_linear_2542_7277" x1="1078.05" y1="50.8982" x2="1067.04" y2="63.5802" gradientUnits="userSpaceOnUse">
    <stop stop-color="#F83267"></stop>
    <stop offset="1" stop-color="#FF3190"></stop>
    </linearGradient>
    <radialGradient id="paint4_radial_2542_7277" cx="0" cy="0" r="1" gradientUnits="userSpaceOnUse" gradientTransform="translate(1071.35 53.3381) rotate(75.5683) scale(16.233 13.9954)">
    <stop offset="0.757" stop-color="#E76CBE" stop-opacity="0"></stop>
    <stop offset="0.951" stop-color="#E76CBE"></stop>
    </radialGradient>
    <radialGradient id="paint5_radial_2542_7277" cx="0" cy="0" r="1" gradientUnits="userSpaceOnUse" gradientTransform="translate(1070.63 62.2026) rotate(-68.2598) scale(11.1998 4.91952)">
    <stop stop-color="#FF5898"></stop>
    <stop offset="1" stop-color="#FF5898" stop-opacity="0"></stop>
    </radialGradient>
    <linearGradient id="paint6_linear_2542_7277" x1="1063.63" y1="25.5434" x2="1085.59" y2="40.5164" gradientUnits="userSpaceOnUse">
    <stop stop-color="#CCBBC0"></stop>
    <stop offset="1" stop-color="#EAD2EC"></stop>
    </linearGradient>
    <radialGradient id="paint7_radial_2542_7277" cx="0" cy="0" r="1" gradientUnits="userSpaceOnUse" gradientTransform="translate(1090.7 48.2526) rotate(-153.361) scale(35.4384 66.6151)">
    <stop offset="0.811" stop-color="#E7E5E5" stop-opacity="0"></stop>
    <stop offset="1" stop-color="#E7E5E5"></stop>
    </radialGradient>
    <radialGradient id="paint8_radial_2542_7277" cx="0" cy="0" r="1" gradientUnits="userSpaceOnUse" gradientTransform="translate(1059.73 53.6455) rotate(-67.8427) scale(20.8331 9.79136)">
    <stop offset="0.281" stop-color="#B5A3A5"></stop>
    <stop offset="1" stop-color="#B5A3A5" stop-opacity="0"></stop>
    </radialGradient>
    <radialGradient id="paint9_radial_2542_7277" cx="0" cy="0" r="1" gradientUnits="userSpaceOnUse" gradientTransform="translate(1053.32 52.2428) rotate(-84.5387) scale(18.4688 3.12949)">
    <stop offset="0.208" stop-color="#B28F96"></stop>
    <stop offset="1" stop-color="#B28F96" stop-opacity="0"></stop>
    </radialGradient>
    <radialGradient id="paint10_radial_2542_7277" cx="0" cy="0" r="1" gradientUnits="userSpaceOnUse" gradientTransform="translate(1091.43 16.8029) rotate(126.37) scale(27.9969 8.69271)">
    <stop stop-color="#FAECF1"></stop>
    <stop offset="1" stop-color="#FAECF1" stop-opacity="0"></stop>
    </radialGradient>
    <linearGradient id="paint11_linear_2542_7277" x1="1073.32" y1="27.6084" x2="1087.57" y2="26.0966" gradientUnits="userSpaceOnUse">
    <stop stop-color="#A796A0"></stop>
    <stop offset="1" stop-color="#A5959F"></stop>
    </linearGradient>
    <radialGradient id="paint12_radial_2542_7277" cx="0" cy="0" r="1" gradientUnits="userSpaceOnUse" gradientTransform="translate(1080.57 27.4476) rotate(79.0863) scale(7.13868)">
    <stop offset="0.587" stop-color="#93859B"></stop>
    <stop offset="1" stop-color="#93859B" stop-opacity="0"></stop>
    </radialGradient>
    <radialGradient id="paint13_radial_2542_7277" cx="0" cy="0" r="1" gradientUnits="userSpaceOnUse" gradientTransform="translate(1081.5 32.3013) rotate(-100.914) scale(10.2969 9.46955)">
    <stop stop-color="#72CDFF"></stop>
    <stop offset="0.738" stop-color="#66ACFF"></stop>
    <stop offset="1" stop-color="#3B57F4"></stop>
    </radialGradient>
    <radialGradient id="paint14_radial_2542_7277" cx="0" cy="0" r="1" gradientUnits="userSpaceOnUse" gradientTransform="translate(1058.85 60.1718) rotate(124.086) scale(12.3387 9.69851)">
    <stop stop-color="#D46213"></stop>
    <stop offset="1" stop-color="#FF9542"></stop>
    </radialGradient>
    <radialGradient id="paint15_radial_2542_7277" cx="0" cy="0" r="1" gradientUnits="userSpaceOnUse" gradientTransform="translate(1060.98 69.9812) rotate(-142.1) scale(15.2459 16.0666)">
    <stop offset="0.871" stop-color="#FFC484" stop-opacity="0"></stop>
    <stop offset="1" stop-color="#FFC484"></stop>
    </radialGradient>
    <linearGradient id="paint16_linear_2542_7277" x1="1052.93" y1="56.3486" x2="1066.58" y2="65.4157" gradientUnits="userSpaceOnUse">
    <stop stop-color="#452860"></stop>
    <stop offset="1" stop-color="#51509F"></stop>
    </linearGradient>
    <radialGradient id="paint17_radial_2542_7277" cx="0" cy="0" r="1" gradientUnits="userSpaceOnUse" gradientTransform="translate(1054.88 54.8901) rotate(66.9148) scale(3.4646 3.06106)">
    <stop stop-color="#8E839A"></stop>
    <stop offset="1" stop-color="#8E839A" stop-opacity="0"></stop>
    </radialGradient>
    <radialGradient id="paint18_radial_2542_7277" cx="0" cy="0" r="1" gradientUnits="userSpaceOnUse" gradientTransform="translate(1056.06 56.7519) rotate(37.0219) scale(13.2011 6.91977)">
    <stop offset="0.86" stop-color="#6175B9" stop-opacity="0"></stop>
    <stop offset="1" stop-color="#6175B9"></stop>
    </radialGradient>
    <linearGradient id="paint19_linear_2542_7277" x1="1094.04" y1="7.13656" x2="1087.85" y2="16.2857" gradientUnits="userSpaceOnUse">
    <stop stop-color="#FF3745"></stop>
    <stop offset="1" stop-color="#ED224B"></stop>
    </linearGradient>
    <radialGradient id="paint20_radial_2542_7277" cx="0" cy="0" r="1" gradientUnits="userSpaceOnUse" gradientTransform="translate(1093.72 10.3841) rotate(124.086) scale(17.5244 4.20686)">
    <stop offset="0.189" stop-color="#FF5971"></stop>
    <stop offset="1" stop-color="#FF5971" stop-opacity="0"></stop>
    </radialGradient>
    <linearGradient id="paint21_linear_2542_7277" x1="1088.61" y1="16.6678" x2="1089.23" y2="15.721" gradientUnits="userSpaceOnUse">
    <stop stop-color="#D2575E"></stop>
    <stop offset="1" stop-color="#F93251" stop-opacity="0"></stop>
    </linearGradient>
    <linearGradient id="paint22_linear_2542_7277" x1="1070.5" y1="42.3845" x2="1059.57" y2="58.5275" gradientUnits="userSpaceOnUse">
    <stop stop-color="#FF2644"></stop>
    <stop offset="1" stop-color="#FF2982"></stop>
    </linearGradient>
    <radialGradient id="paint23_radial_2542_7277" cx="0" cy="0" r="1" gradientUnits="userSpaceOnUse" gradientTransform="translate(1052.83 50.8929) rotate(-31.7787) scale(15.8479 4.14884)">
    <stop stop-color="#FF95AF"></stop>
    <stop offset="1" stop-color="#FF95AF" stop-opacity="0"></stop>
    </radialGradient>
    <radialGradient id="paint24_radial_2542_7277" cx="0" cy="0" r="1" gradientUnits="userSpaceOnUse" gradientTransform="translate(1051.43 53.0788) rotate(33.7906) scale(9.7967 2.89385)">
    <stop offset="0.382" stop-color="#E14678"></stop>
    <stop offset="1" stop-color="#E14678" stop-opacity="0"></stop>
    </radialGradient>
    <radialGradient id="paint25_radial_2542_7277" cx="0" cy="0" r="1" gradientUnits="userSpaceOnUse" gradientTransform="translate(1063.86 48.1545) rotate(73.7605) scale(15.7398 16.7731)">
    <stop offset="0.832" stop-color="#E67BC7" stop-opacity="0"></stop>
    <stop offset="1" stop-color="#E67BC7"></stop>
    </radialGradient>
    <linearGradient id="paint26_linear_2542_7277" x1="1068.47" y1="45.0336" x2="1061.6" y2="55.6925" gradientUnits="userSpaceOnUse">
    <stop stop-color="#FF5970"></stop>
    <stop offset="1" stop-color="#FF5794"></stop>
    </linearGradient>
    <clipPath id="clip0_2542_7277">
    <rect width="68" height="68" fill="white" transform="translate(1032 12.874) rotate(-10.9137)"></rect>
    </clipPath>
    </defs>
  </svg>