<svg width="28" height="28" viewBox="0 0 28 28" fill="none" xmlns="http://www.w3.org/2000/svg">
<path fill-rule="evenodd" clip-rule="evenodd" d="M13.4225 25.7603H14.665L17.675 22.7503H21.875L22.75 21.8753V17.6403L25.795 14.6303V13.3878L22.8025 10.3778V6.10781L21.9275 5.25031H17.675L14.665 2.25781H13.4225L10.5 5.25031H6.17748L5.24998 6.12531V10.3778L2.29248 13.3878V14.6303L5.24998 17.6403V21.8753L6.17748 22.7503H10.5L13.4225 25.7603ZM10.78 21.0003H6.99998V17.2728L6.78998 16.6603L4.14748 14.0003L6.73748 11.3578L6.99998 10.7453V7.00031H10.78L11.41 6.75531L14 4.11281L16.695 6.75531L17.3075 7.00031H21V10.7453L21.2975 11.3578L23.9575 14.0003L21.245 16.6603L21 17.2728V21.0003H17.3075L16.6425 21.2628L14 23.9053L11.41 21.2453L10.78 21.0003ZM11.7775 18.3403H13.02L19.6175 11.7428L18.375 10.5003L12.4075 16.4853L9.99248 14.0703L8.74998 15.3128L11.7775 18.3403Z" fill="#F7523C"/>
</svg>
