<svg width="28" height="28" viewBox="0 0 28 28" fill="none" xmlns="http://www.w3.org/2000/svg">
<path d="M7 16.625H5.25V14.875C5.25069 14.179 5.52748 13.5117 6.01961 13.0196C6.51174 12.5275 7.17902 12.2507 7.875 12.25H12.25V14H7.875C7.64301 14.0002 7.42058 14.0925 7.25654 14.2565C7.09249 14.4206 7.00023 14.643 7 14.875V16.625ZM10.5 11.375C9.80777 11.375 9.13108 11.1697 8.5555 10.7851C7.97993 10.4006 7.53133 9.85394 7.26642 9.21439C7.00151 8.57485 6.9322 7.87112 7.06725 7.19219C7.2023 6.51325 7.53564 5.88961 8.02513 5.40013C8.51461 4.91064 9.13825 4.5773 9.81718 4.44225C10.4961 4.3072 11.1999 4.37652 11.8394 4.64142C12.4789 4.90633 13.0256 5.35493 13.4101 5.93051C13.7947 6.50608 14 7.18277 14 7.875C13.9988 8.8029 13.6297 9.69247 12.9736 10.3486C12.3175 11.0047 11.4279 11.3738 10.5 11.375ZM10.5 6.125C10.1539 6.125 9.81554 6.22764 9.52775 6.41993C9.23997 6.61222 9.01566 6.88554 8.88321 7.20531C8.75076 7.52508 8.7161 7.87694 8.78363 8.21641C8.85115 8.55588 9.01782 8.8677 9.26256 9.11244C9.50731 9.35718 9.81913 9.52385 10.1586 9.59138C10.4981 9.6589 10.8499 9.62424 11.1697 9.49179C11.4895 9.35934 11.7628 9.13504 11.9551 8.84725C12.1474 8.55946 12.25 8.22112 12.25 7.875C12.2495 7.41102 12.065 6.96616 11.7369 6.63808C11.4088 6.30999 10.964 6.12546 10.5 6.125ZM17.5 17.5C16.8078 17.5 16.1311 17.2947 15.5555 16.9101C14.9799 16.5256 14.5313 15.9789 14.2664 15.3394C14.0015 14.6999 13.9322 13.9961 14.0673 13.3172C14.2023 12.6383 14.5356 12.0146 15.0251 11.5251C15.5146 11.0356 16.1383 10.7023 16.8172 10.5673C17.4961 10.4322 18.1999 10.5015 18.8394 10.7664C19.4789 11.0313 20.0256 11.4799 20.4101 12.0555C20.7947 12.6311 21 13.3078 21 14C20.9988 14.9279 20.6297 15.8175 19.9736 16.4736C19.3175 17.1297 18.4279 17.4988 17.5 17.5ZM17.5 12.25C17.1539 12.25 16.8155 12.3526 16.5278 12.5449C16.24 12.7372 16.0157 13.0105 15.8832 13.3303C15.7508 13.6501 15.7161 14.0019 15.7836 14.3414C15.8511 14.6809 16.0178 14.9927 16.2626 15.2374C16.5073 15.4822 16.8191 15.6489 17.1586 15.7164C17.4981 15.7839 17.8499 15.7492 18.1697 15.6168C18.4895 15.4843 18.7628 15.26 18.9551 14.9722C19.1474 14.6845 19.25 14.3461 19.25 14C19.2495 13.536 19.065 13.0912 18.7369 12.7631C18.4088 12.435 17.964 12.2505 17.5 12.25ZM22.75 22.75H21V21C20.9998 20.768 20.9075 20.5456 20.7435 20.3815C20.5794 20.2175 20.357 20.1252 20.125 20.125H14.875C14.643 20.1252 14.4206 20.2175 14.2565 20.3815C14.0925 20.5456 14.0002 20.768 14 21V22.75H12.25V21C12.2507 20.304 12.5275 19.6367 13.0196 19.1446C13.5117 18.6525 14.179 18.3757 14.875 18.375H20.125C20.821 18.3757 21.4883 18.6525 21.9804 19.1446C22.4725 19.6367 22.7493 20.304 22.75 21V22.75Z" fill="#9B51E0"/>
<path d="M7 26.25H3.5C3.03601 26.2495 2.59116 26.065 2.26307 25.7369C1.93499 25.4088 1.75046 24.964 1.75 24.5V3.5C1.75046 3.03601 1.93499 2.59116 2.26307 2.26307C2.59116 1.93499 3.03601 1.75046 3.5 1.75H7V3.5H3.5V24.5H7V26.25ZM24.5 26.25H21V24.5H24.5V3.5H21V1.75H24.5C24.964 1.75046 25.4088 1.93499 25.7369 2.26307C26.065 2.59116 26.2495 3.03601 26.25 3.5V24.5C26.2495 24.964 26.065 25.4088 25.7369 25.7369C25.4088 26.065 24.964 26.2495 24.5 26.25Z" fill="#9B51E0"/>
</svg>
