<svg width="632" height="530" viewBox="0 0 632 530" fill="none" xmlns="http://www.w3.org/2000/svg">
<mask id="mask0_1006_1554" style="mask-type:alpha" maskUnits="userSpaceOnUse" x="0" y="450" width="621" height="80">
<rect x="0.5" y="450.5" width="620" height="79" fill="#D9D9D9" stroke="#2056DF"/>
</mask>
<g mask="url(#mask0_1006_1554)">
<path d="M180.801 529.5L298.209 66.2119L607.906 529.5H180.801Z" fill="url(#paint0_linear_1006_1554)" stroke="#2056DF"/>
<path d="M179.77 529.5H30.8653L296.626 68.3844L179.77 529.5Z" fill="url(#paint1_linear_1006_1554)" stroke="#2056DF"/>
</g>
<mask id="mask1_1006_1554" style="mask-type:alpha" maskUnits="userSpaceOnUse" x="11" y="360" width="621" height="80">
<rect x="11.5" y="360.5" width="620" height="79" fill="#D9D9D9" stroke="#E32E90"/>
</mask>
<g mask="url(#mask1_1006_1554)">
<path d="M180.801 519.5L298.209 56.2119L607.906 519.5H180.801Z" fill="url(#paint2_linear_1006_1554)" stroke="#E32E90"/>
<path d="M179.77 519.5H30.8653L296.626 58.3844L179.77 519.5Z" fill="url(#paint3_linear_1006_1554)" stroke="#E32E90"/>
</g>
<mask id="mask2_1006_1554" style="mask-type:alpha" maskUnits="userSpaceOnUse" x="11" y="270" width="621" height="80">
<rect x="11.5" y="270.5" width="620" height="79" fill="#D9D9D9" stroke="#E16927"/>
</mask>
<g mask="url(#mask2_1006_1554)">
<path d="M180.801 509.5L298.209 46.2119L607.906 509.5H180.801Z" fill="url(#paint4_linear_1006_1554)" stroke="#E16927"/>
<path d="M179.77 509.5H30.8653L296.626 48.3844L179.77 509.5Z" fill="url(#paint5_linear_1006_1554)" stroke="#E16927"/>
</g>
<mask id="mask3_1006_1554" style="mask-type:alpha" maskUnits="userSpaceOnUse" x="11" y="180" width="621" height="80">
<rect x="11.5" y="180.5" width="620" height="79" fill="#D9D9D9" stroke="#6E17DD"/>
</mask>
<g mask="url(#mask3_1006_1554)">
<path d="M180.801 499.5L298.209 36.2119L607.906 499.5H180.801Z" fill="url(#paint6_linear_1006_1554)" stroke="#6E17DD"/>
<path d="M179.77 499.5H30.8653L296.626 38.3844L179.77 499.5Z" fill="url(#paint7_linear_1006_1554)" stroke="#6E17DD"/>
</g>
<mask id="mask4_1006_1554" style="mask-type:alpha" maskUnits="userSpaceOnUse" x="11" y="90" width="621" height="80">
<rect x="11.5" y="90.5" width="620" height="79" fill="#D9D9D9" stroke="#50E572"/>
</mask>
<g mask="url(#mask4_1006_1554)">
<path d="M180.801 489.5L298.209 26.2119L607.906 489.5H180.801Z" fill="url(#paint8_linear_1006_1554)" stroke="#50E572"/>
<path d="M179.77 489.5H30.8653L296.626 28.3844L179.77 489.5Z" fill="url(#paint9_linear_1006_1554)" stroke="#50E572"/>
</g>
<mask id="mask5_1006_1554" style="mask-type:alpha" maskUnits="userSpaceOnUse" x="11" y="0" width="621" height="80">
<rect x="11.5" y="0.5" width="620" height="79" fill="#D9D9D9" stroke="#407BFF"/>
</mask>
<g mask="url(#mask5_1006_1554)">
<path d="M180.801 479.5L298.209 16.2119L607.906 479.5H180.801Z" fill="url(#paint10_linear_1006_1554)" stroke="#407BFF"/>
<path d="M179.77 479.5H30.8653L296.626 18.3844L179.77 479.5Z" fill="url(#paint11_linear_1006_1554)" stroke="#407BFF"/>
</g>
<defs>
<linearGradient id="paint0_linear_1006_1554" x1="609" y1="530" x2="182.372" y2="530" gradientUnits="userSpaceOnUse">
<stop stop-color="#174EDD"/>
<stop offset="1" stop-color="#DDE6FF"/>
</linearGradient>
<linearGradient id="paint1_linear_1006_1554" x1="-117.5" y1="530" x2="184.5" y2="530" gradientUnits="userSpaceOnUse">
<stop stop-color="#174EDD"/>
<stop offset="1" stop-color="#C7D6FF"/>
</linearGradient>
<linearGradient id="paint2_linear_1006_1554" x1="609" y1="520" x2="182.372" y2="520" gradientUnits="userSpaceOnUse">
<stop stop-color="#DD1782"/>
<stop offset="0.916667" stop-color="#FA96CC"/>
<stop offset="1" stop-color="#FFAEDA"/>
</linearGradient>
<linearGradient id="paint3_linear_1006_1554" x1="-117.5" y1="520" x2="184.5" y2="520" gradientUnits="userSpaceOnUse">
<stop stop-color="#DD1782"/>
<stop offset="1" stop-color="#FFADD9"/>
</linearGradient>
<linearGradient id="paint4_linear_1006_1554" x1="609" y1="510" x2="182.372" y2="510" gradientUnits="userSpaceOnUse">
<stop stop-color="#DD5E17"/>
<stop offset="0.734375" stop-color="#E57B3F"/>
<stop offset="1" stop-color="#FFD5BE"/>
</linearGradient>
<linearGradient id="paint5_linear_1006_1554" x1="-117.5" y1="510" x2="184.5" y2="510" gradientUnits="userSpaceOnUse">
<stop stop-color="#DD5E17"/>
<stop offset="1" stop-color="#E7A280"/>
</linearGradient>
<linearGradient id="paint6_linear_1006_1554" x1="609" y1="500" x2="182.372" y2="500" gradientUnits="userSpaceOnUse">
<stop stop-color="#6E17DD"/>
<stop offset="1" stop-color="#D4B1FF"/>
</linearGradient>
<linearGradient id="paint7_linear_1006_1554" x1="-117.5" y1="500" x2="184.5" y2="500" gradientUnits="userSpaceOnUse">
<stop stop-color="#6E17DD"/>
<stop offset="1" stop-color="#D4B1FF"/>
</linearGradient>
<linearGradient id="paint8_linear_1006_1554" x1="609" y1="490" x2="182.372" y2="490" gradientUnits="userSpaceOnUse">
<stop stop-color="#17DD43"/>
<stop offset="1" stop-color="#ABFFC0"/>
</linearGradient>
<linearGradient id="paint9_linear_1006_1554" x1="-117.5" y1="490" x2="184.5" y2="490" gradientUnits="userSpaceOnUse">
<stop stop-color="#17DD43"/>
<stop offset="1" stop-color="#86EB9F"/>
</linearGradient>
<linearGradient id="paint10_linear_1006_1554" x1="609" y1="480" x2="182.372" y2="480" gradientUnits="userSpaceOnUse">
<stop stop-color="#3B82F6"/>
<stop offset="0.651042" stop-color="#4589F7"/>
<stop offset="1" stop-color="#E2EDFF"/>
</linearGradient>
<linearGradient id="paint11_linear_1006_1554" x1="-117.5" y1="480" x2="184.5" y2="480" gradientUnits="userSpaceOnUse">
<stop stop-color="#407BFF"/>
</linearGradient>
</defs>
</svg>
