<svg width="28" height="28" viewBox="0 0 28 28" fill="none" xmlns="http://www.w3.org/2000/svg">
<path d="M14 2.625C11.3435 2.625 9.114 4.34525 8.20312 6.67188L9.81662 7.32812C10.4799 5.63063 12.1056 4.375 14 4.375C16.4106 4.375 18.375 6.33938 18.375 8.75V9.95312C17.0844 9.20062 15.5977 8.75 14 8.75C9.17875 8.75 5.25 12.6788 5.25 17.5C5.25 22.3213 9.17875 26.25 14 26.25C18.8212 26.25 22.75 22.3213 22.75 17.5C22.7497 16.3384 22.5173 15.1885 22.0665 14.118C21.6157 13.0474 20.9557 12.0776 20.125 11.2656V8.75C20.125 5.38562 17.3644 2.625 14 2.625ZM14 10.5C17.8763 10.5 21 13.6237 21 17.5C21 21.3762 17.8763 24.5 14 24.5C10.1238 24.5 7 21.3762 7 17.5C7 13.6237 10.1238 10.5 14 10.5ZM14 15.75C13.5359 15.75 13.0908 15.9344 12.7626 16.2626C12.4344 16.5908 12.25 17.0359 12.25 17.5C12.25 18.1475 12.6026 18.7014 13.125 19.005V21.875H14.875V19.005C15.3974 18.7014 15.75 18.1475 15.75 17.5C15.75 17.0359 15.5656 16.5908 15.2374 16.2626C14.9092 15.9344 14.4641 15.75 14 15.75Z" fill="#2D9CDB"/>
</svg>
